<?xml version="1.0" encoding="utf-8"?>
<!-- Generator: Adobe Illustrator 18.0.0, SVG Export Plug-In . SVG Version: 6.00 Build 0)  -->
<!DOCTYPE svg PUBLIC "-//W3C//DTD SVG 1.1//EN" "http://www.w3.org/Graphics/SVG/1.1/DTD/svg11.dtd">
<svg version="1.1" id="Layer_1" xmlns="http://www.w3.org/2000/svg" xmlns:xlink="http://www.w3.org/1999/xlink" x="0px" y="0px"
	 viewBox="0 0 64.5 57.6" enable-background="new 0 0 64.5 57.6" xml:space="preserve">
<g id="P8KoYv.tif_1_">
	<g>
		<path fill="#2A5662" d="M38.1,41.5c-5.3,0-10.6,0-15.9,0c-0.9,0-1.9,0.1-2.8,0.2c-1.6,0.2-2.9,1.3-3.1,2.8
			c-0.3,1.4,0.8,3.1,2.2,3.4c0.4,0.1,0.5-0.2,0.7-0.4c1.1-2,2.8-3.3,5-3.7c3.1-0.5,6.2,1.1,7.4,4c0.2,0.5,0.5,0.6,0.9,0.6
			c2.9,0,5.7,0,8.6,0c0.5,0,0.8-0.2,1-0.6c2.1-4.3,7.6-5.4,11.1-2.1c0.6,0.6,1.2,1.3,1.5,2.2c0.2,0.4,0.4,0.6,0.8,0.5
			c0.7,0,1.4,0,2.2,0c1.3,0,2.3,1,2.3,2.3c0,1.3-1,2.3-2.3,2.4c-0.7,0-1.3,0-2,0c-0.5,0-0.8,0.2-1,0.6c-1.7,3.6-5.7,5-9.3,3.3
			c-1.5-0.7-2.5-1.8-3.2-3.3c-0.2-0.5-0.5-0.7-1-0.7c-2.8,0-5.7,0-8.5,0c-0.5,0-0.8,0.1-1,0.6c-2.1,4.4-7.5,5.4-11,2.1
			c-0.7-0.6-1.2-1.4-1.5-2.2c-0.2-0.5-0.5-0.7-0.9-0.8c-3.9-0.9-6.7-4.1-6.6-8.1c0.1-2.9,2-5.8,4.9-6.9c1.2-0.5,1.2-0.5,0.8-1.8
			c-2.6-8.5-5.3-17-7.9-25.4C8.8,8.7,8.2,7,7.7,5.3C7.6,4.8,7.3,4.7,6.8,4.7c-1.5,0-3,0-4.5,0c-0.9,0-1.7-0.4-2.1-1.3
			c-0.4-0.9-0.3-1.7,0.2-2.5C0.9,0.3,1.5,0,2.2,0C4.6,0,7,0,9.4,0c1,0,1.8,0.7,2.1,1.6c0.7,2.3,1.4,4.5,2.1,6.8
			c0.2,0.7,0.6,0.8,1.2,0.8c15.7,0,31.4,0,47.1,0c2,0,3,1.2,2.5,3.2c-1.4,5.5-2.7,11-4.1,16.5c-0.9,3.5-1.7,7-2.6,10.4
			c-0.4,1.5-1.1,2.1-2.7,2.1C49.3,41.5,43.7,41.5,38.1,41.5C38.1,41.5,38.1,41.5,38.1,41.5z M21.5,13.9
			C21.5,13.9,21.5,13.9,21.5,13.9c-1.8,0-3.6,0-5.5,0c-0.6,0-0.6,0.2-0.5,0.7c0.4,1.1,0.7,2.2,1,3.3c0.1,0.4,0.3,0.6,0.8,0.6
			c3.2,0,6.4,0,9.6,0c0.5,0,0.7-0.2,0.7-0.7c0-1,0-2,0-3c0-0.6-0.2-0.8-0.8-0.8C25,13.9,23.3,13.9,21.5,13.9z M38,13.9
			C38,13.9,38,13.9,38,13.9c-1.7,0-3.3,0-5,0c-0.4,0-0.7,0-0.7,0.6c0,1.1,0,2.2,0,3.4c0,0.4,0.2,0.6,0.6,0.6c3.4,0,6.8,0,10.2,0
			c0.5,0,0.6-0.2,0.6-0.6c0-1,0-2.1,0-3.1c0-0.7-0.2-0.8-0.8-0.8C41.3,13.9,39.7,13.9,38,13.9z M38,27.6C38,27.6,38,27.6,38,27.6
			c1.7,0,3.3,0,5,0c0.4,0,0.7-0.1,0.7-0.6c0-1.1,0-2.2,0-3.4c0-0.4-0.2-0.6-0.6-0.6c-3.4,0-6.7,0-10.1,0c-0.5,0-0.7,0.2-0.7,0.7
			c0,1,0,2,0,3c0,0.6,0.2,0.8,0.8,0.8C34.7,27.6,36.4,27.6,38,27.6z M38,36.8C38,36.8,38,36.8,38,36.8c1.7,0,3.3,0,5,0
			c0.5,0,0.8-0.1,0.8-0.7c0-1.1,0-2.1,0-3.2c0-0.5-0.2-0.7-0.7-0.7c-3.3,0-6.7,0-10,0c-0.5,0-0.7,0.2-0.7,0.7c0,1,0,2.1,0,3.1
			c0,0.6,0.2,0.7,0.8,0.7C34.7,36.8,36.4,36.8,38,36.8z M53.8,13.9c-1.6,0-3.2,0-4.7,0c-0.5,0-0.7,0.1-0.6,0.6c0,1.1,0,2.2,0,3.3
			c0,0.4,0.1,0.6,0.6,0.6c2.8,0,5.6,0,8.5,0c0.4,0,0.6-0.1,0.7-0.5c0.3-1.1,0.6-2.2,0.9-3.3c0.2-0.6-0.1-0.7-0.6-0.7
			C56.8,13.9,55.3,13.9,53.8,13.9z M23.6,27.6c1.1,0,2.2,0,3.3,0c0.5,0,0.7-0.2,0.7-0.7c0-1,0-2.1,0-3.1c0-0.5-0.1-0.7-0.7-0.7
			c-2.7,0-5.4,0-8,0c-0.6,0-0.6,0.2-0.5,0.7c0.3,1,0.7,2.1,1,3.2c0.2,0.5,0.5,0.7,1,0.7C21.5,27.6,22.6,27.6,23.6,27.6z M52.6,23.1
			C52.6,23.1,52.6,23.1,52.6,23.1c-1.2,0-2.4,0-3.6,0c-0.4,0-0.6,0.1-0.6,0.6c0,1.1,0,2.3,0,3.4c0,0.4,0.2,0.6,0.6,0.6
			c2.1,0,4.1,0,6.2,0c0.4,0,0.6-0.1,0.7-0.5c0.3-1.1,0.6-2.3,0.9-3.4c0.1-0.5,0-0.6-0.5-0.6C55,23.1,53.8,23.1,52.6,23.1z
			 M24.4,32.3C24.4,32.3,24.4,32.3,24.4,32.3c-0.9,0-1.8,0-2.7,0c-0.4,0-0.6,0.1-0.4,0.5c0.4,1.1,0.7,2.3,1.1,3.4
			c0.1,0.4,0.3,0.6,0.8,0.6c1.3,0,2.5,0,3.8,0c0.5,0,0.7-0.1,0.7-0.7c0-1.1,0-2.2,0-3.2c0-0.5-0.2-0.7-0.7-0.6
			C26.1,32.3,25.2,32.3,24.4,32.3z M51.5,32.3C51.5,32.3,51.5,32.3,51.5,32.3c-0.8,0-1.6,0-2.4,0c-0.5,0-0.6,0.1-0.6,0.6
			c0,1.1,0,2.2,0,3.2c0,0.6,0.2,0.7,0.7,0.7c1.2,0,2.4,0,3.6,0c0.5,0,0.7-0.2,0.9-0.7c0.3-1.1,0.5-2.2,0.8-3.3
			c0.1-0.5-0.1-0.5-0.5-0.5C53.1,32.3,52.3,32.3,51.5,32.3z M25.3,53.1c1.5,0,2.5-1,2.5-2.5c0-1.3-1-2.4-2.4-2.4
			c-1.5,0-2.5,1-2.5,2.5C22.9,52,24,53.1,25.3,53.1z M48.3,53.1c1.5,0,2.5-1,2.5-2.5c0-1.3-1-2.4-2.4-2.4c-1.5,0-2.5,1-2.5,2.5
			C45.9,52,47,53.1,48.3,53.1z"/>
	</g>
</g>
</svg>
