<?xml version="1.0" encoding="utf-8"?>
<!-- Generator: Adobe Illustrator 18.0.0, SVG Export Plug-In . SVG Version: 6.00 Build 0)  -->
<!DOCTYPE svg PUBLIC "-//W3C//DTD SVG 1.1//EN" "http://www.w3.org/Graphics/SVG/1.1/DTD/svg11.dtd">
<svg version="1.1" id="Layer_1" xmlns="http://www.w3.org/2000/svg" xmlns:xlink="http://www.w3.org/1999/xlink" x="0px" y="0px"
	 viewBox="0 0 73.1 51.6" enable-background="new 0 0 73.1 51.6" xml:space="preserve">
<g id="_x35_2JqGC.tif_1_">
	<g>
		<path fill="#2A5662" d="M73.1,25.8c0,0.8,0,1.6,0,2.3c-0.9,0.4-1.8,1.2-2.8,1.3c-2.1,0.2-4.2,0.1-6.5,0.1c0,4.4-0.2,8.5,0.1,12.6
			c0.3,4.6-1.3,7.8-5.6,9.6c-14.5,0-28.9,0-43.4,0c-4.3-1.8-5.9-5-5.6-9.6c0.2-3.3,0-6.6,0-9.9c0-0.8,0-1.6,0-2.6
			c-2.4,0-4.5,0.1-6.5-0.1c-1-0.1-1.9-0.8-2.8-1.3c0-0.8,0-1.6,0-2.3c1-0.4,1.9-1.1,2.9-1.2c2.1-0.2,4.2-0.1,6.3-0.1
			c0-1.8,0-3.3,0-4.7c-2.8-0.5-3.5-1.3-4.5-5c21.3,0,42.5,0,63.8,0c-0.9,3.4-1.6,4.2-4.5,5.1c0,1.5,0,2.9,0,4.6
			c2.2,0,4.3-0.1,6.3,0.1C71.2,24.7,72.1,25.4,73.1,25.8z M16.8,19.7c0,0.8,0,1.5,0,2.2c0,6.8,0,13.6,0,20.5c0,3.4,1.3,4.4,4.7,4
			c0-8.8,0-17.7,0-26.6C19.9,19.7,18.4,19.7,16.8,19.7z"/>
		<path fill="#2A5662" d="M41.4,0c0,0.7,0,1.4,0,2.3c-0.7,0.1-1.4,0.2-2.2,0.3c0,0.7,0,1.5,0,2.1c4.2,0.5,8.4,0.8,12.6,1.6
			C55.2,6.9,58.6,8,61.9,9c2,0.6,2,0.7,1.7,3.1c-18,0-36,0-54.1,0C8.9,10.5,9.5,9.6,11.1,9c6.5-2.4,13.3-3.5,20.2-3.9
			C32.2,5,33,5,33.9,4.9c0-0.9,0-1.6,0-2.4c-0.7-0.1-1.4-0.2-2.3-0.3c0-0.8,0-1.5,0-2.3C34.9,0,38.2,0,41.4,0z"/>
	</g>
</g>
</svg>
