<?xml version="1.0" encoding="utf-8"?>
<!-- Generator: Adobe Illustrator 18.0.0, SVG Export Plug-In . SVG Version: 6.00 Build 0)  -->
<!DOCTYPE svg PUBLIC "-//W3C//DTD SVG 1.1//EN" "http://www.w3.org/Graphics/SVG/1.1/DTD/svg11.dtd">
<svg version="1.1" id="Layer_1" xmlns="http://www.w3.org/2000/svg" xmlns:xlink="http://www.w3.org/1999/xlink" x="0px" y="0px"
	 viewBox="0 0 56.2 54.3" enable-background="new 0 0 56.2 54.3" xml:space="preserve">
<g id="wE10Y9_2_">
	<g>
		<path fill="#2A5662" d="M16.1,25.9c4.6-4,9-7.9,13.7-11.6c7.1-5.7,15-10.2,23.4-13.7c0.4-0.2,0.8-0.4,1.2-0.5
			c1.1-0.3,1.7,0.2,1.8,1.4c0.3,6.8-0.6,13.4-3.2,19.8c-3.2,8-8.3,14.8-14.1,21.1c-0.5,0.5-1,1.1-1.5,1.6c-1.2,1.2-2,1.2-3.3,0
			c-3.7-3.7-7.3-7.3-11-11C20.9,30.6,18.7,28.4,16.1,25.9z"/>
		<path fill="#2A5662" d="M13.6,30.3c3.4,3.5,6.8,6.9,10.5,10.5c-2.6,2.6-5.3,5.2-8,7.8c-1.1,1.1-2.2,2.2-3.3,3.3
			c-2.3,2.1-4.9,2.9-7.9,1.8c-3-1.1-4.6-3.4-4.9-6.4c-0.2-1.9,0.3-3.7,1.7-5.1C5.6,38.2,9.6,34.3,13.6,30.3z M7.5,42.8
			c-2.4,0-4.2,1.8-4.2,4.2c0,2.1,1.9,4,4.1,4c2.4,0,4.2-1.7,4.2-4.1C11.5,44.6,9.8,42.8,7.5,42.8z"/>
	</g>
</g>
</svg>
